<svg width="105" height="71" viewBox="0 0 105 71" fill="none" xmlns="http://www.w3.org/2000/svg">
<path d="M36.0464 28.5451C36.0464 25.988 33.9661 23.9151 31.4 23.9151C28.8338 23.9151 26.7536 25.988 26.7536 28.5451V43.619C26.7536 46.1761 28.8338 48.2491 31.4 48.2491C33.9661 48.2491 36.0464 46.1761 36.0464 43.619V28.5451Z" fill="white"/>
<path d="M73.9564 29.593C73.9564 27.0359 71.8761 24.963 69.31 24.963C66.7438 24.963 64.6636 27.0359 64.6636 29.593V42.5712C64.6636 45.1283 66.7438 47.2012 69.31 47.2012C71.8761 47.2012 73.9564 45.1283 73.9564 42.5712V29.593Z" fill="white"/>
<path d="M86.5964 36.0821C86.5964 33.525 84.5161 31.4521 81.95 31.4521C79.3839 31.4521 77.3036 33.525 77.3036 36.0821C77.3036 38.6392 79.3839 40.7121 81.95 40.7121C84.5161 40.7121 86.5964 38.6392 86.5964 36.0821Z" fill="white"/>
<path d="M23.4064 36.0821C23.4064 33.525 21.3261 31.4521 18.76 31.4521C16.1939 31.4521 14.1136 33.525 14.1136 36.0821C14.1136 38.6392 16.1939 40.7121 18.76 40.7121C21.3261 40.7121 23.4064 38.6392 23.4064 36.0821Z" fill="white"/>
<path d="M48.6864 22.1306C48.6864 19.5735 46.6061 17.5006 44.04 17.5006C41.4738 17.5006 39.3936 19.5735 39.3936 22.1306V50.0336C39.3936 52.5907 41.4738 54.6636 44.04 54.6636C46.6061 54.6636 48.6864 52.5907 48.6864 50.0336V22.1306Z" fill="white"/>
<path d="M61.3264 47.8684C61.3264 45.3113 59.2461 43.2384 56.68 43.2384C54.1138 43.2384 52.0336 45.3113 52.0336 47.8684V60.5484C52.0336 63.1055 54.1138 65.1784 56.68 65.1784C59.2461 65.1784 61.3264 63.1055 61.3264 60.5484V47.8684Z" fill="white"/>
<path d="M61.3264 11.6377C61.3264 9.08063 59.2461 7.00769 56.68 7.00769C54.1138 7.00769 52.0336 9.08063 52.0336 11.6377V34.7967C52.0336 37.3537 54.1138 39.4267 56.68 39.4267C59.2461 39.4267 61.3264 37.3537 61.3264 34.7967V11.6377Z" fill="white"/>
</svg>
